<svg width="24" height="24" viewBox="0 0 24 24" fill="black" xmlns="http://www.w3.org/2000/svg" class="ui-icon ">
<path d="M12 8C12.3107 8.00895 12.5948 8.12524 12.8257 8.37573L18.4481 14.1929C18.6435 14.3897 18.75 14.6402 18.75 14.9354C18.75 15.5259 18.2883 16 17.7024 16C17.4183 16 17.143 15.8837 16.9388 15.6779L12.0089 10.5496L7.06116 15.6779C6.85696 15.8748 6.59061 16 6.29763 16C5.71167 16 5.25 15.5259 5.25 14.9354C5.25 14.6402 5.35654 14.3897 5.55186 14.1929L11.1832 8.37573C11.4229 8.12524 11.6893 8 12 8Z"></path>
</svg>